# xmcd CD database file
#
# Track frame offsets:
#	183
#	31413
#	52975
#	62663
#	88708
#	107470
#	133878
#	164978
#	170965
#	180033
#	195115
#	226498
#	239150
#
# Disc length: 3549 seconds
#
# Revision: 2
# Processed by: cddbd v1.4PL0 Copyright (c) Steve Scherf et al.
# Submitted via: CDex 1.50beta10
#
DISCID=b00ddb0d
DTITLE=Michel Corboz - J.S.Bach Matthaus-Passion
DYEAR=1900
DGENRE=Classical
TTITLE0=Chorus1,2 
TTITLE1=Aria - Soprano
TTITLE2=Recitativo - Tenore - Chorus 2
TTITLE3=Aria - Tenore - Chorus 2
TTITLE4=Aria - Soprano, Alto Chorus 1,2
TTITLE5=Choral - Soprano in ripieno
TTITLE6=Aria - Alto
TTITLE7=Choral
TTITLE8=Recitativo - Alto
TTITLE9=Aria - Alto - Chorus 2
TTITLE10=Aria - Basso
TTITLE11=Recitativo - Basso, Tenore, Alto, Soprano, Chorus 2
TTITLE12=Chorus1,2
EXTD=
EXTT0=
EXTT1=
EXTT2=
EXTT3=
EXTT4=
EXTT5=
EXTT6=
EXTT7=
EXTT8=
EXTT9=
EXTT10=
EXTT11=
EXTT12=
PLAYORDER=
